<svg width="33" height="32" viewBox="0 0 33 32" fill="none" xmlns="http://www.w3.org/2000/svg">
<path d="M21.5 0C22.5104 0 23.4844 0.130208 24.4219 0.390625C25.3594 0.651042 26.2344 1.02083 27.0469 1.5C27.8594 1.97917 28.599 2.55208 29.2656 3.21875C29.9323 3.88542 30.5104 4.63021 31 5.45312C31.4896 6.27604 31.8594 7.15104 32.1094 8.07812C32.3594 9.00521 32.4896 9.97917 32.5 11C32.5 12.0104 32.3698 12.9844 32.1094 13.9219C31.849 14.8594 31.4792 15.7344 31 16.5469C30.5208 17.3594 29.9479 18.099 29.2812 18.7656C28.6146 19.4323 27.8698 20.0104 27.0469 20.5C26.224 20.9896 25.349 21.3594 24.4219 21.6094C23.4948 21.8594 22.5208 21.9896 21.5 22C20.1979 22 18.9531 21.7812 17.7656 21.3438C16.5781 20.9062 15.4792 20.276 14.4688 19.4531L2.20312 31.7031C2.00521 31.901 1.77083 32 1.5 32C1.22917 32 0.994792 31.901 0.796875 31.7031C0.598958 31.5052 0.5 31.2708 0.5 31C0.5 30.7292 0.598958 30.4948 0.796875 30.2969L13.0469 18.0312C12.224 17.0312 11.5938 15.9375 11.1562 14.75C10.7188 13.5625 10.5 12.3125 10.5 11C10.5 9.98958 10.6302 9.01562 10.8906 8.07812C11.151 7.14062 11.5208 6.26562 12 5.45312C12.4792 4.64062 13.0521 3.90104 13.7188 3.23438C14.3854 2.56771 15.1302 1.98958 15.9531 1.5C16.776 1.01042 17.651 0.640625 18.5781 0.390625C19.5052 0.140625 20.4792 0.0104167 21.5 0ZM21.5 20C22.7396 20 23.9062 19.7656 25 19.2969C26.0938 18.8281 27.0469 18.1823 27.8594 17.3594C28.6719 16.5365 29.3125 15.5833 29.7812 14.5C30.25 13.4167 30.4896 12.25 30.5 11C30.5 9.76042 30.2656 8.59375 29.7969 7.5C29.3281 6.40625 28.6823 5.45312 27.8594 4.64062C27.0365 3.82812 26.0833 3.1875 25 2.71875C23.9167 2.25 22.75 2.01042 21.5 2C20.2604 2 19.0938 2.23438 18 2.70312C16.9062 3.17188 15.9531 3.81771 15.1406 4.64062C14.3281 5.46354 13.6875 6.41667 13.2188 7.5C12.75 8.58333 12.5104 9.75 12.5 11C12.5 12.2396 12.7344 13.4062 13.2031 14.5C13.6719 15.5938 14.3177 16.5469 15.1406 17.3594C15.9635 18.1719 16.9167 18.8125 18 19.2812C19.0833 19.75 20.25 19.9896 21.5 20Z" fill="#A3ABB6"/>
</svg>
